<?xml version="1.0" encoding="utf-8"?><svg xmlns="http://www.w3.org/2000/svg" xmlns:xlink="http://www.w3.org/1999/xlink"><symbol viewBox="0 0 8 13" id="arrow-left" xmlns="http://www.w3.org/2000/svg"><path d="M7.41 1.66L2.83 6.25l4.58 4.59L6 12.25l-6-6 6-6 1.41 1.41z"/></symbol><symbol viewBox="0 0 18 18" id="ask" xmlns="http://www.w3.org/2000/svg"><path d="M18 8.5a8.38 8.38 0 0 1-.9 3.8A8.5 8.5 0 0 1 9.5 17a8.38 8.38 0 0 1-3.8-.9L0 18l1.9-5.7A8.38 8.38 0 0 1 1 8.5 8.5 8.5 0 0 1 5.7.9 8.38 8.38 0 0 1 9.5 0h.5a8.48 8.48 0 0 1 8 8v.5z"/></symbol><symbol viewBox="0 0 16 16" id="close" xmlns="http://www.w3.org/2000/svg"><path d="M2.343 15.071L15.07 2.343 13.657.93.929 13.657l1.414 1.414z"/><path d="M.929 2.343l12.728 12.728 1.414-1.414L2.343.929.929 2.343z"/></symbol><symbol viewBox="0 0 213.33 213.33" id="dropdown" xmlns="http://www.w3.org/2000/svg"><path d="M0 53.333L106.667 160 213.333 53.333z"/></symbol><symbol viewBox="0 0 479.06 479.06" id="email" xmlns="http://www.w3.org/2000/svg"><path d="M434.146 59.882H44.912C20.146 59.882 0 80.028 0 104.794v269.47c0 24.766 20.146 44.912 44.912 44.912h389.234c24.766 0 44.912-20.146 44.912-44.912v-269.47c0-24.766-20.146-44.912-44.912-44.912zm0 29.941c2.034 0 3.969.422 5.738 1.159L239.529 264.631 39.173 90.982a14.902 14.902 0 0 1 5.738-1.159zm0 299.411H44.912c-8.26 0-14.971-6.71-14.971-14.971V122.615l199.778 173.141c2.822 2.441 6.316 3.655 9.81 3.655s6.988-1.213 9.81-3.655l199.778-173.141v251.649c-.001 8.26-6.711 14.97-14.971 14.97z"/></symbol><symbol viewBox="0 0 469.33 469.33" id="eye" xmlns="http://www.w3.org/2000/svg"><path d="M234.667 170.667c-35.307 0-64 28.693-64 64s28.693 64 64 64 64-28.693 64-64-28.694-64-64-64z"/><path d="M234.667 74.667C128 74.667 36.907 141.013 0 234.667c36.907 93.653 128 160 234.667 160 106.773 0 197.76-66.347 234.667-160-36.907-93.654-127.894-160-234.667-160zm0 266.666c-58.88 0-106.667-47.787-106.667-106.667S175.787 128 234.667 128s106.667 47.787 106.667 106.667-47.787 106.666-106.667 106.666z"/></symbol><symbol viewBox="0 0 24 24" id="facebook" xmlns="http://www.w3.org/2000/svg"><path d="M15.997 3.985h2.191V.169C17.81.117 16.51 0 14.996 0c-3.159 0-5.323 1.987-5.323 5.639V9H6.187v4.266h3.486V24h4.274V13.267h3.345l.531-4.266h-3.877V6.062c.001-1.233.333-2.077 2.051-2.077z"/></symbol><symbol viewBox="0 0 16 18" id="filter" xmlns="http://www.w3.org/2000/svg"><path d="M5.5 15.716a1 1 0 0 0 1.447.894l3-1.5a1 1 0 0 0 .553-.894v-3.382a1 1 0 0 0-1-1h-3a1 1 0 0 0-1 1v4.882zM1.5.667a1 1 0 0 0-1 1V2a1 1 0 0 0 .2.6l4.5 6A1 1 0 0 0 6 9h4a1 1 0 0 0 .8-.4l4.5-6a1 1 0 0 0 .2-.6v-.333a1 1 0 0 0-1-1h-13z"/></symbol><symbol viewBox="0 0 18 16" id="heart" xmlns="http://www.w3.org/2000/svg"><path d="M16.367 1.842a4.583 4.583 0 0 0-6.484 0L9 2.725l-.883-.883a4.584 4.584 0 1 0-6.484 6.483l.884.883L9 15.692l6.483-6.484.884-.883a4.584 4.584 0 0 0 0-6.483z"/></symbol><symbol viewBox="0 0 511 511.9" id="instagram" xmlns="http://www.w3.org/2000/svg"><path d="M510.95 150.5c-1.2-27.2-5.598-45.898-11.9-62.102-6.5-17.199-16.5-32.597-29.6-45.398-12.802-13-28.302-23.102-45.302-29.5-16.296-6.3-34.898-10.7-62.097-11.898C334.648.3 325.949 0 256.449 0s-78.199.3-105.5 1.5c-27.199 1.2-45.898 5.602-62.097 11.898-17.204 6.5-32.602 16.5-45.403 29.602-13 12.8-23.097 28.3-29.5 45.3-6.3 16.302-10.699 34.9-11.898 62.098C.75 177.801.449 186.5.449 256s.301 78.2 1.5 105.5c1.2 27.2 5.602 45.898 11.903 62.102 6.5 17.199 16.597 32.597 29.597 45.398 12.801 13 28.301 23.102 45.301 29.5 16.3 6.3 34.898 10.7 62.102 11.898 27.296 1.204 36 1.5 105.5 1.5s78.199-.296 105.5-1.5c27.199-1.199 45.898-5.597 62.097-11.898a130.934 130.934 0 0 0 74.903-74.898c6.296-16.301 10.699-34.903 11.898-62.102 1.2-27.3 1.5-36 1.5-105.5s-.102-78.2-1.3-105.5zm-46.098 209c-1.102 25-5.301 38.5-8.801 47.5-8.602 22.3-26.301 40-48.602 48.602-9 3.5-22.597 7.699-47.5 8.796-27 1.204-35.097 1.5-103.398 1.5s-76.5-.296-103.403-1.5c-25-1.097-38.5-5.296-47.5-8.796C94.551 451.5 84.45 445 76.25 436.5c-8.5-8.3-15-18.3-19.102-29.398-3.5-9-7.699-22.602-8.796-47.5-1.204-27-1.5-35.102-1.5-103.403s.296-76.5 1.5-103.398c1.097-25 5.296-38.5 8.796-47.5C61.25 94.199 67.75 84.1 76.352 75.898c8.296-8.5 18.296-15 29.398-19.097 9-3.5 22.602-7.7 47.5-8.801 27-1.2 35.102-1.5 103.398-1.5 68.403 0 76.5.3 103.403 1.5 25 1.102 38.5 5.3 47.5 8.8 11.097 4.098 21.199 10.598 29.398 19.098 8.5 8.301 15 18.301 19.102 29.403 3.5 9 7.699 22.597 8.8 47.5 1.2 27 1.5 35.097 1.5 103.398s-.3 76.301-1.5 103.301zm0 0"/><path d="M256.45 124.5c-72.598 0-131.5 58.898-131.5 131.5s58.902 131.5 131.5 131.5c72.6 0 131.5-58.898 131.5-131.5s-58.9-131.5-131.5-131.5zm0 216.8c-47.098 0-85.302-38.198-85.302-85.3s38.204-85.3 85.301-85.3c47.102 0 85.301 38.198 85.301 85.3s-38.2 85.3-85.3 85.3zm167.402-222c0 16.954-13.747 30.7-30.704 30.7-16.953 0-30.699-13.746-30.699-30.7 0-16.956 13.746-30.698 30.7-30.698 16.956 0 30.703 13.742 30.703 30.699zm0 0"/></symbol><symbol viewBox="0 0 15 16" id="like" xmlns="http://www.w3.org/2000/svg"><path d="M11.7 16H4.1C2.115 16 .5 14.425.5 12.488V8.82c0-.757.227-1.45.675-2.061L5.657.746C5.935.29 6.407 0 6.9 0c.664 0 1.6.557 1.6 1.795 0 .354-.1.593-.195.823a6.079 6.079 0 0 0-.07.172c-.15.41-.943 2.156-1.358 3.064 1.23.002 3.958.009 4.995.039 1.14 0 1.828.754 1.828 1.482 0 .25-.043.592-.079.832.353.205.879.643.879 1.432 0 .548-.27.955-.53 1.22.265.237.53.611.53 1.16 0 .784-.553 1.259-.949 1.499.078.204.149.478.149.804 0 .7-.76 1.678-2 1.678z"/></symbol><symbol viewBox="0 0 10 14" id="location" xmlns="http://www.w3.org/2000/svg"><path d="M5 .333A4.663 4.663 0 0 0 .333 5C.333 8.5 5 13.667 5 13.667S9.667 8.5 9.667 5A4.663 4.663 0 0 0 5 .333zm0 6.334a1.667 1.667 0 1 1 .001-3.335 1.667 1.667 0 0 1 0 3.335z"/></symbol><symbol viewBox="0 0 18 12" id="menu" xmlns="http://www.w3.org/2000/svg"><path d="M0 12h18v-2H0v2zm0-5h18V5H0v2zm0-7v2h18V0H0z"/></symbol><symbol viewBox="0 0 512.48 512.48" id="od" xmlns="http://www.w3.org/2000/svg"><path d="M256.239 277.333c76.583 0 138.667-62.083 138.667-138.667S332.823 0 256.239 0 117.573 62.083 117.573 138.667c.094 76.544 62.122 138.572 138.666 138.666zm0-213.333c41.237 0 74.667 33.429 74.667 74.667s-33.429 74.667-74.667 74.667-74.667-33.429-74.667-74.667S215.002 64 256.239 64z"/><path d="M392.069 343.04a53.72 53.72 0 0 0 24.171-44.8 38.698 38.698 0 0 0-21.696-35.307 40.534 40.534 0 0 0-42.667 4.011c-56.983 41.543-134.27 41.543-191.253 0a40.747 40.747 0 0 0-42.667-4.011 38.74 38.74 0 0 0-21.717 35.285 53.78 53.78 0 0 0 24.171 44.8 246.275 246.275 0 0 0 62.507 29.867 212.318 212.318 0 0 0 11.627 3.243l-64.469 63.04c-16.912 16.409-17.321 43.42-.912 60.333 16.409 16.912 43.42 17.321 60.333.912.352-.342.698-.689 1.038-1.043l65.707-68.011 65.835 68.139c16.395 16.925 43.407 17.355 60.332.96 16.925-16.395 17.355-43.407.96-60.332a42.943 42.943 0 0 0-1.047-1.044l-64.363-62.976a270.92 270.92 0 0 0 11.669-3.264 245.352 245.352 0 0 0 62.441-29.802z"/></symbol><symbol viewBox="0 0 20 24" id="recommend" xmlns="http://www.w3.org/2000/svg"><path d="M3.333 0h13.334c1.466 0 2.666 1.2 2.666 2.667V24L10 20 .667 24 .68 2.667A2.663 2.663 0 0 1 3.333 0z"/></symbol><symbol viewBox="0 0 512 512" id="search" xmlns="http://www.w3.org/2000/svg"><path d="M225.474 0C101.151 0 0 101.151 0 225.474c0 124.33 101.151 225.474 225.474 225.474 124.33 0 225.474-101.144 225.474-225.474C450.948 101.151 349.804 0 225.474 0zm0 409.323c-101.373 0-183.848-82.475-183.848-183.848S124.101 41.626 225.474 41.626s183.848 82.475 183.848 183.848-82.475 183.849-183.848 183.849z"/><path d="M505.902 476.472L386.574 357.144c-8.131-8.131-21.299-8.131-29.43 0-8.131 8.124-8.131 21.306 0 29.43l119.328 119.328A20.74 20.74 0 0 0 491.187 512a20.754 20.754 0 0 0 14.715-6.098c8.131-8.124 8.131-21.306 0-29.43z"/></symbol><symbol viewBox="0 0 20 20" id="squad" xmlns="http://www.w3.org/2000/svg"><path fill-rule="evenodd" clip-rule="evenodd" d="M1.5 0A1.5 1.5 0 0 0 0 1.5v5A1.5 1.5 0 0 0 1.5 8h5A1.5 1.5 0 0 0 8 6.5v-5A1.5 1.5 0 0 0 6.5 0h-5zm0 12A1.5 1.5 0 0 0 0 13.5v5A1.5 1.5 0 0 0 1.5 20h5A1.5 1.5 0 0 0 8 18.5v-5A1.5 1.5 0 0 0 6.5 12h-5zM12 1.5A1.5 1.5 0 0 1 13.5 0h5A1.5 1.5 0 0 1 20 1.5v5A1.5 1.5 0 0 1 18.5 8h-5A1.5 1.5 0 0 1 12 6.5v-5zM13.5 12a1.5 1.5 0 0 0-1.5 1.5v5a1.5 1.5 0 0 0 1.5 1.5h5a1.5 1.5 0 0 0 1.5-1.5v-5a1.5 1.5 0 0 0-1.5-1.5h-5z"/></symbol><symbol viewBox="0 0 16 15" id="star" xmlns="http://www.w3.org/2000/svg"><path d="M14.963 5.207L10.5 4.558 8.505.513a.565.565 0 0 0-1.009 0L5.5 4.558l-4.463.649a.561.561 0 0 0-.31.96l3.228 3.148-.763 4.445a.562.562 0 0 0 .816.593L8 12.253l3.992 2.1a.562.562 0 0 0 .816-.592l-.763-4.446 3.229-3.148a.562.562 0 0 0-.311-.96z"/></symbol><symbol viewBox="0 0 18 18" id="tel" xmlns="http://www.w3.org/2000/svg"><path d="M14.777 18h-.023c-3.074-.098-6.685-3.089-9.176-5.58C3.088 9.93.098 6.317 0 3.255-.033 2.219 2.595.298 2.621.28c.586-.409 1.374-.331 1.694.112a283.8 283.8 0 0 1 2.437 3.682c.218.341.183.855-.091 1.375a94.286 94.286 0 0 1-.93 1.658c.247.358.942 1.283 2.41 2.751 1.476 1.476 2.394 2.165 2.75 2.411.41-.234 1.356-.772 1.66-.932.502-.265 1.025-.304 1.368-.094.361.22 3.398 2.24 3.682 2.438.223.157.367.426.395.74.028.32-.07.66-.278.957-.02.026-1.917 2.622-2.941 2.622z"/></symbol><symbol viewBox="0 0 21 18" id="telegram" xmlns="http://www.w3.org/2000/svg"><path d="M20.94 1.622l-3.17 14.944c-.238 1.054-.862 1.317-1.748.82l-4.828-3.558-2.33 2.24c-.258.258-.473.474-.97.474l.347-4.917 8.948-8.086c.39-.347-.084-.54-.604-.192L5.522 10.312.76 8.822C-.276 8.498-.295 7.786.975 7.289L19.603.112c.863-.323 1.617.193 1.336 1.51z"/></symbol><symbol viewBox="0 0 14 15" id="user" xmlns="http://www.w3.org/2000/svg"><path fill-rule="evenodd" clip-rule="evenodd" d="M11 4a4 4 0 1 1-8 0 4 4 0 0 1 8 0zm3 9.333V15H0v-1.667c0-.884.369-1.732 1.025-2.357A3.59 3.59 0 0 1 3.5 10h7a3.59 3.59 0 0 1 2.475.976A3.255 3.255 0 0 1 14 13.333z"/></symbol><symbol viewBox="0 0 24 25" id="viber" xmlns="http://www.w3.org/2000/svg"><path d="M20.812 2.337C20.217 1.79 17.808.04 12.436.017c0 0-6.333-.38-9.417 2.452C1.303 4.184.699 6.7.633 9.819.567 12.936.487 18.776 6.117 20.36h.005l-.005 2.418s-.037.98.61 1.177c.778.244 1.237-.502 1.982-1.303.408-.44.97-1.088 1.397-1.58 3.853.324 6.811-.417 7.149-.525.778-.253 5.18-.815 5.892-6.656.74-6.028-.356-9.834-2.335-11.555zm.652 11.114c-.605 4.875-4.172 5.185-4.828 5.396-.281.089-2.883.736-6.15.525 0 0-2.438 2.939-3.197 3.703-.248.248-.52.225-.516-.267 0-.324.02-4.018.02-4.018-.006 0-.006 0 0 0-4.773-1.322-4.492-6.295-4.44-8.896.052-2.602.544-4.735 1.997-6.17 2.61-2.366 7.987-2.015 7.987-2.015 4.543.019 6.718 1.388 7.224 1.847 1.673 1.434 2.526 4.866 1.903 9.895zm-6.516-3.787c.02.403-.586.431-.604.028-.052-1.031-.535-1.533-1.528-1.59-.404-.023-.366-.627.032-.604 1.308.07 2.035.82 2.1 2.166zm.952.53c.047-1.988-1.195-3.544-3.553-3.718-.399-.028-.356-.632.042-.604 2.719.197 4.167 2.067 4.116 4.336-.005.403-.614.384-.605-.014zm2.203.628c.005.403-.605.408-.605.004-.028-3.82-2.573-5.901-5.662-5.925-.399-.004-.399-.604 0-.604 3.454.023 6.234 2.409 6.267 6.525zm-.53 4.598v.01c-.506.89-1.453 1.875-2.428 1.56l-.01-.014c-.988-.276-3.318-1.476-4.79-2.648a12.2 12.2 0 0 1-1.987-1.988 15.212 15.212 0 0 1-1.444-2.184c-.998-1.805-1.219-2.61-1.219-2.61-.314-.976.666-1.923 1.561-2.429h.01c.43-.225.843-.15 1.12.183 0 0 .581.694.83 1.036.234.318.548.83.712 1.115.286.511.108 1.032-.173 1.247l-.563.45c-.286.23-.248.656-.248.656s.834 3.155 3.951 3.952c0 0 .427.037.657-.248l.45-.563c.215-.281.735-.46 1.246-.173.69.389 1.566.993 2.147 1.542.328.267.403.675.178 1.106z"/></symbol><symbol viewBox="0 0 511.96 511.96" id="vk" xmlns="http://www.w3.org/2000/svg"><path d="M507.399 370.471c-1.376-2.304-9.888-20.8-50.848-58.816-42.88-39.808-37.12-33.344 14.528-102.176 31.456-41.92 44.032-67.52 40.096-78.464-3.744-10.432-26.88-7.68-26.88-7.68l-76.928.448s-5.696-.768-9.952 1.76c-4.128 2.496-6.784 8.256-6.784 8.256s-12.192 32.448-28.448 60.032c-34.272 58.208-48 61.28-53.6 57.664-13.024-8.416-9.76-33.856-9.76-51.904 0-56.416 8.544-79.936-16.672-86.016-8.384-2.016-14.528-3.36-35.936-3.584-27.456-.288-50.72.096-63.872 6.528-8.768 4.288-15.52 13.856-11.392 14.4 5.088.672 16.608 3.104 22.72 11.424 7.904 10.72 7.616 34.848 7.616 34.848s4.544 66.4-10.592 74.656c-10.4 5.664-24.64-5.888-55.2-58.72-15.648-27.04-27.488-56.96-27.488-56.96s-2.272-5.568-6.336-8.544c-4.928-3.616-11.84-4.768-11.84-4.768l-73.152.448s-10.976.32-15.008 5.088c-3.584 4.256-.288 13.024-.288 13.024s57.28 133.984 122.112 201.536c59.488 61.92 127.008 57.856 127.008 57.856h30.592s9.248-1.024 13.952-6.112c4.352-4.672 4.192-13.44 4.192-13.44s-.608-41.056 18.464-47.104c18.784-5.952 42.912 39.68 68.48 57.248 19.328 13.28 34.016 10.368 34.016 10.368l68.384-.96s35.776-2.208 18.816-30.336z"/></symbol><symbol viewBox="0 0 20 20" id="whats-up" xmlns="http://www.w3.org/2000/svg"><path fill-rule="evenodd" clip-rule="evenodd" d="M14.748 11.956c.244.134.407.202.466.308.058.106.04.604-.19 1.177-.229.573-1.265 1.095-1.723 1.12-.457.024-.47.356-2.96-.734-2.491-1.091-3.99-3.744-4.108-3.914-.118-.17-.964-1.386-.919-2.61.046-1.223.711-1.801.948-2.04a.913.913 0 0 1 .675-.287l.476.038c.145.006.355-.07.544.436l.698 1.875c.057.126.093.273.004.436l-.264.405-.39.422c-.129.12-.264.249-.128.503.136.255.605 1.087 1.32 1.774.917.883 1.709 1.176 1.953 1.309.244.134.39.12.541-.042l.824-.945c.175-.243.34-.195.564-.103l1.669.872zM10 0c5.523 0 10 4.477 10 10s-4.477 10-10 10a9.953 9.953 0 0 1-5.35-1.55L0 20l1.55-4.65A9.953 9.953 0 0 1 0 10C0 4.477 4.477 0 10 0zm0 2a8 8 0 0 0-6.537 12.612L2.5 17.5l2.888-.963A8 8 0 1 0 10 2z"/></symbol></svg>