<svg viewBox="0 0 2678 485" fill="none" xmlns="http://www.w3.org/2000/svg">
<g clip-path="url(#clip0)">
<path d="M1014.56 474.57L1014.11 287.77L907.39 445.48L798.84 291.77V474.57H731.23V163.23H790.83L907.37 336.06L1022.12 163.23H1081.28L1082.17 474.57H1014.56Z" fill="#252525"/>
<path d="M1384.17 374.5H1203.17C1206.43 389.334 1214.14 401.047 1226.3 409.64C1238.46 418.234 1253.58 422.53 1271.67 422.53C1284.12 422.53 1295.16 420.677 1304.8 416.97C1314.86 412.991 1324.02 407.018 1331.71 399.41L1368.63 439.41C1346.09 465.204 1313.18 478.1 1269.89 478.1C1242.9 478.1 1219.03 472.837 1198.28 462.31C1177.53 451.784 1161.53 437.18 1150.28 418.5C1139.01 399.834 1133.38 378.634 1133.38 354.9C1133.38 331.48 1138.94 310.354 1150.06 291.52C1160.98 272.907 1176.83 257.678 1195.87 247.52C1215.29 237 1237.01 231.737 1261.03 231.73C1284.45 231.73 1305.65 236.774 1324.63 246.86C1343.38 256.726 1358.9 271.778 1369.34 290.22C1380.16 309.06 1385.57 330.93 1385.57 355.83C1385.52 356.717 1385.06 362.94 1384.17 374.5ZM1221.82 297.55C1211.15 306.45 1204.63 318.607 1202.25 334.02H1320.12C1317.74 318.9 1311.22 306.817 1300.55 297.77C1289.88 288.724 1276.84 284.204 1261.41 284.21C1245.69 284.21 1232.49 288.657 1221.82 297.55V297.55Z" fill="#252525"/>
<path d="M1971.71 374.5H1790.71C1793.97 389.334 1801.68 401.047 1813.84 409.64C1826 418.234 1841.12 422.53 1859.2 422.53C1871.66 422.53 1882.71 420.677 1892.34 416.97C1902.4 412.988 1911.55 407.016 1919.25 399.41L1956.17 439.41C1933.63 465.204 1900.71 478.1 1857.42 478.1C1830.44 478.1 1806.57 472.837 1785.82 462.31C1765.07 451.784 1749.07 437.18 1737.82 418.5C1726.55 399.834 1720.92 378.634 1720.92 354.9C1720.92 331.48 1726.48 310.354 1737.6 291.52C1748.51 272.905 1764.37 257.675 1783.41 247.52C1802.83 237 1824.55 231.737 1848.57 231.73C1871.99 231.73 1893.19 236.774 1912.17 246.86C1930.92 256.723 1946.44 271.776 1956.87 290.22C1967.69 309.06 1973.1 330.93 1973.11 355.83C1973.07 356.717 1972.6 362.94 1971.71 374.5ZM1809.37 297.55C1798.7 306.45 1792.18 318.607 1789.8 334.02H1907.66C1905.29 318.9 1898.76 306.817 1888.09 297.77C1877.42 288.724 1864.39 284.204 1849 284.21C1833.25 284.21 1820.04 288.657 1809.37 297.55V297.55Z" fill="#252525"/>
<path d="M2019.3 163.65H2088.69V474.57H2019.3V163.65Z" fill="#252525"/>
<path d="M2158.37 190.8C2150.79 183.4 2147 174.21 2147 163.23C2147 152.25 2150.79 143.057 2158.38 135.65C2165.97 128.244 2175.81 124.537 2187.88 124.53C2199.95 124.524 2209.79 128.084 2217.38 135.21C2224.97 142.317 2228.77 151.21 2228.76 161.89C2228.76 173.464 2224.97 183.027 2217.38 190.58C2209.79 198.134 2199.96 201.914 2187.88 201.92C2175.79 201.92 2165.96 198.214 2158.37 190.8Z" fill="#252525"/>
<path d="M2222.57 236.15H2153.18V474.57H2222.57V236.15Z" fill="#252525"/>
<path d="M2309.3 470.79C2290.32 465.897 2275.2 459.744 2263.93 452.33L2287.06 402.52C2297.73 409.34 2310.62 414.9 2325.75 419.2C2340.21 423.404 2355.18 425.575 2370.23 425.65C2399.56 425.65 2414.23 418.384 2414.23 403.85C2414.23 397.037 2410.23 392.147 2402.23 389.18C2394.23 386.214 2381.93 383.69 2365.32 381.61C2345.75 378.65 2329.59 375.24 2316.84 371.38C2304.19 367.594 2292.75 360.536 2283.7 350.92C2274.37 341.14 2269.7 327.204 2269.7 309.11C2269.5 294.611 2274.11 280.454 2282.82 268.86C2291.56 257.147 2304.31 248.03 2321.07 241.51C2337.83 234.99 2357.62 231.727 2380.45 231.72C2397.43 231.732 2414.36 233.596 2430.93 237.28C2447.68 240.994 2461.55 246.11 2472.52 252.63L2449.4 302C2428.37 290.146 2404.6 284.012 2380.46 284.21C2365.63 284.21 2354.51 286.284 2347.1 290.43C2339.69 294.577 2335.98 299.91 2335.98 306.43C2335.98 313.844 2339.98 319.03 2347.98 321.99C2355.98 324.95 2368.73 327.767 2386.23 330.44C2405.8 333.714 2421.8 337.2 2434.23 340.9C2446.67 344.605 2457.89 351.593 2466.7 361.13C2475.89 370.924 2480.48 384.564 2480.49 402.05C2480.66 416.379 2475.95 430.34 2467.14 441.64C2458.25 453.2 2445.28 462.17 2428.22 468.55C2411.16 474.93 2390.92 478.117 2367.51 478.11C2347.87 478.143 2328.32 475.684 2309.3 470.79V470.79Z" fill="#252525"/>
<path d="M2677.57 463C2670.74 468.04 2662.36 471.82 2652.44 474.34C2642.18 476.899 2631.65 478.169 2621.08 478.12C2592.62 478.12 2570.62 470.857 2555.08 456.33C2539.54 441.804 2531.76 420.47 2531.73 392.33V289.65H2494.81V236.28H2531.73V163.28H2601.12V236.28H2660.72V289.65H2601.12V391.4C2601.12 401.48 2603.71 409.264 2608.9 414.75C2614.09 420.237 2621.42 422.98 2630.9 422.98C2641.86 422.98 2651.19 420.014 2658.9 414.08L2677.57 463Z" fill="#252525"/>
<path d="M1676.83 290.21C1666.85 272.088 1651.98 257.138 1633.91 247.07C1615.67 236.843 1595.43 231.727 1573.2 231.72C1542.65 231.72 1518.63 241.357 1501.14 260.63V163.63H1431.76V474.57H1498V447C1515.19 467.76 1540.25 478.137 1573.17 478.13C1595.4 478.13 1615.64 473.017 1633.88 462.79C1651.95 452.721 1666.83 437.767 1676.8 419.64C1687.18 401.12 1692.37 379.55 1692.37 354.93C1692.37 330.31 1687.19 308.737 1676.83 290.21ZM1566.58 421.59C1532.77 421.59 1505.35 391.86 1505.35 355.19C1505.35 318.52 1532.77 288.78 1566.58 288.78C1600.39 288.78 1627.81 318.51 1627.81 355.19C1627.81 391.87 1600.4 421.59 1566.58 421.59Z" fill="#252525"/>
<path d="M410.37 322.78L306.93 481.34L205.65 321.39C271.602 295.902 344.77 296.399 410.37 322.78V322.78Z" fill="url(#paint0_linear)"/>
<path d="M511.62 484.42L410.36 322.78C477.249 303.414 548.326 303.925 614.93 324.25L511.62 484.42Z" fill="url(#paint1_linear)"/>
<path d="M411.08 322.78L614.93 324.25L514.93 160.86H310.36C266.195 207.726 230.737 262.09 205.65 321.4L410.37 322.78H411.08Z" fill="url(#paint2_linear)"/>
<path d="M310.36 160.87L309.63 161.99L206.57 319.99L205.71 321.3L100.07 483.26L0 322.39L1.67 319.83L210.3 0L310.36 160.87Z" fill="url(#paint3_linear)"/>
</g>
<defs>
<linearGradient id="paint0_linear" x1="205.65" y1="391.98" x2="410.37" y2="391.98" gradientUnits="userSpaceOnUse">
<stop stop-color="#0B95F4"/>
<stop offset="1" stop-color="#71BCF7"/>
</linearGradient>
<linearGradient id="paint1_linear" x1="84357.7" y1="70016.2" x2="126207" y2="70016.2" gradientUnits="userSpaceOnUse">
<stop stop-color="#0B95F4"/>
<stop offset="1" stop-color="#71BCF7"/>
</linearGradient>
<linearGradient id="paint2_linear" x1="205.65" y1="242.55" x2="614.93" y2="242.55" gradientUnits="userSpaceOnUse">
<stop stop-color="#34A6F4"/>
<stop offset="1" stop-color="#9ACFF9"/>
</linearGradient>
<linearGradient id="paint3_linear" x1="0" y1="241.63" x2="310.36" y2="241.63" gradientUnits="userSpaceOnUse">
<stop stop-color="#49A9F5"/>
<stop offset="0.82" stop-color="#71BCF7"/>
</linearGradient>
<clipPath id="clip0">
<rect width="2677.57" height="484.42" fill="white"/>
</clipPath>
</defs>
</svg>
