<svg width="615" height="484" viewBox="0 0 615 484" fill="none" xmlns="http://www.w3.org/2000/svg">
<g clip-path="url(#clip0)">
<path d="M410.37 322.78L306.93 481.34L205.65 321.39C271.602 295.902 344.77 296.399 410.37 322.78V322.78Z" fill="url(#paint0_linear)"/>
<path d="M511.62 484.42L410.36 322.78C477.249 303.414 548.326 303.925 614.93 324.25L511.62 484.42Z" fill="url(#paint1_linear)"/>
<path d="M411.08 322.78L614.93 324.25L514.93 160.86H310.36C266.195 207.726 230.737 262.09 205.65 321.4L410.37 322.78H411.08Z" fill="url(#paint2_linear)"/>
<path d="M310.36 160.87L309.63 161.99L206.57 319.99L205.71 321.3L100.07 483.26L0 322.39L1.67 319.83L210.3 0L310.36 160.87Z" fill="url(#paint3_linear)"/>
</g>
<defs>
<linearGradient id="paint0_linear" x1="205.65" y1="391.98" x2="410.37" y2="391.98" gradientUnits="userSpaceOnUse">
<stop stop-color="#0B95F4"/>
<stop offset="1" stop-color="#71BCF7"/>
</linearGradient>
<linearGradient id="paint1_linear" x1="84357.7" y1="70016.2" x2="126207" y2="70016.2" gradientUnits="userSpaceOnUse">
<stop stop-color="#0B95F4"/>
<stop offset="1" stop-color="#71BCF7"/>
</linearGradient>
<linearGradient id="paint2_linear" x1="205.65" y1="242.55" x2="614.93" y2="242.55" gradientUnits="userSpaceOnUse">
<stop stop-color="#34A6F4"/>
<stop offset="1" stop-color="#9ACFF9"/>
</linearGradient>
<linearGradient id="paint3_linear" x1="0" y1="241.63" x2="310.36" y2="241.63" gradientUnits="userSpaceOnUse">
<stop stop-color="#49A9F5"/>
<stop offset="0.82" stop-color="#71BCF7"/>
</linearGradient>
<clipPath id="clip0">
<rect width="615" height="484" fill="white"/>
</clipPath>
</defs>
</svg>
